<svg width="40" height="40" viewBox="0 0 40 40" fill="none" xmlns="http://www.w3.org/2000/svg">
<rect width="40" height="40" rx="20" fill="white"/>
<path d="M30.7686 9.875L30.8574 9.87891C31.062 9.8993 31.2547 9.99007 31.4014 10.1367C31.569 10.3044 31.6631 10.5324 31.6631 10.7695C31.663 11.0064 31.5688 11.2338 31.4014 11.4014C31.2337 11.5691 31.0057 11.6631 30.7686 11.6631H29.3555V24.6152C29.3555 24.8524 29.2605 25.0803 29.0928 25.248C28.9251 25.4155 28.6979 25.5098 28.4609 25.5098H23.8994L26.4551 29.9375L26.5635 30.125H24.5L24.4639 30.0625L21.835 25.5098H18.1729L15.5449 30.0625L15.5088 30.125H13.4443L13.5527 29.9375L16.1094 25.5098H11.5381C11.3009 25.5098 11.073 25.4157 10.9053 25.248C10.7376 25.0803 10.6436 24.8524 10.6436 24.6152V11.6631H9.23047C8.9933 11.6631 8.76536 11.5691 8.59766 11.4014C8.43014 11.2338 8.33602 11.0065 8.33594 10.7695L8.33984 10.6807C8.3602 10.476 8.45095 10.2834 8.59766 10.1367C8.76536 9.96902 8.9933 9.875 9.23047 9.875H30.7686ZM12.4316 23.7207H27.5664V11.6631H12.4316V23.7207ZM16.1533 17.5674C16.3903 17.5674 16.6175 17.6616 16.7852 17.8291L16.8447 17.8945C16.9753 18.0537 17.0479 18.2543 17.0479 18.4619V20C17.0479 20.2371 16.9528 20.4641 16.7852 20.6318C16.6175 20.7995 16.3905 20.8945 16.1533 20.8945C15.9162 20.8945 15.6882 20.7995 15.5205 20.6318C15.3531 20.4642 15.2588 20.237 15.2588 20V18.4619C15.2588 18.2248 15.3529 17.9968 15.5205 17.8291L15.5869 17.7695C15.746 17.6393 15.946 17.5674 16.1533 17.5674ZM19.999 16.0293C20.2362 16.0293 20.4641 16.1233 20.6318 16.291C20.7994 16.4586 20.8935 16.6859 20.8936 16.9229V20C20.8936 20.237 20.7993 20.4642 20.6318 20.6318C20.4641 20.7995 20.2362 20.8945 19.999 20.8945C19.762 20.8944 19.5348 20.7994 19.3672 20.6318C19.1996 20.4642 19.1055 20.2371 19.1055 20V16.9229C19.1055 16.6858 19.1996 16.4587 19.3672 16.291C19.5348 16.1234 19.762 16.0294 19.999 16.0293ZM23.8457 14.4902C24.0827 14.4903 24.3099 14.5845 24.4775 14.752C24.6452 14.9197 24.7402 15.1476 24.7402 15.3848V20C24.7402 20.2371 24.6452 20.4641 24.4775 20.6318C24.3099 20.7995 24.0828 20.8945 23.8457 20.8945C23.6085 20.8945 23.3806 20.7995 23.2129 20.6318C23.0454 20.4642 22.9512 20.237 22.9512 20V15.3848C22.9512 15.1476 23.0452 14.9197 23.2129 14.752C23.3806 14.5843 23.6085 14.4902 23.8457 14.4902Z" fill="#FA6600" stroke="#FA6600" stroke-width="0.25"/>
</svg>
