<svg width="24" height="24" viewBox="0 0 24 24" fill="none" xmlns="http://www.w3.org/2000/svg">
<path d="M7 12C7.55228 12 8 11.5523 8 11C8 10.4477 7.55228 10 7 10C6.44772 10 6 10.4477 6 11C6 11.5523 6.44772 12 7 12Z" fill="#FA6600"/>
<path d="M21.585 7.18802C21.4564 7.09544 21.3077 7.03474 21.151 7.01092C20.9944 6.9871 20.8343 7.00084 20.684 7.05102L18.977 7.61902C18.8837 6.89521 18.5301 6.23012 17.9823 5.74797C17.4344 5.26582 16.7298 4.9996 16 4.99902H5C3.346 4.99902 2 6.34602 2 7.99902V13.999C2 15.652 3.346 16.999 5 16.999H8V18.11L8.008 18.2C8.074 18.938 8.389 19.623 8.895 20.128C9.457 20.69 10.206 21 10.999 21C11.792 21 12.541 20.69 13.103 20.13C13.677 19.553 14.001 18.784 13.999 18.017V17H15.999C16.7286 16.9984 17.4328 16.7319 17.9806 16.2499C18.5284 15.768 18.8825 15.1035 18.977 14.38L20.684 14.948C20.987 15.052 21.324 14.999 21.584 14.81C21.7126 14.7173 21.8173 14.5953 21.8894 14.4541C21.9616 14.3129 21.9992 14.1566 21.999 13.998V7.99802C21.999 7.83989 21.9614 7.68403 21.8894 7.54322C21.8175 7.40242 21.7131 7.28069 21.585 7.18802ZM12 18.023C11.991 18.2842 11.8801 18.5316 11.691 18.712C11.6003 18.8029 11.4926 18.875 11.3741 18.9242C11.2555 18.9734 11.1284 18.9988 11 18.9988C10.8716 18.9988 10.7445 18.9734 10.6259 18.9242C10.5074 18.875 10.3997 18.8029 10.309 18.712C10.1275 18.5255 10.018 18.2807 10 18.021V16H12V18.023ZM17 14C17 14.2652 16.8946 14.5196 16.7071 14.7071C16.5196 14.8947 16.2652 15 16 15H5C4.73478 15 4.48043 14.8947 4.29289 14.7071C4.10536 14.5196 4 14.2652 4 14V8.00002C4 7.73481 4.10536 7.48045 4.29289 7.29292C4.48043 7.10538 4.73478 7.00002 5 7.00002H16C16.2652 7.00002 16.5196 7.10538 16.7071 7.29292C16.8946 7.48045 17 7.73481 17 8.00002V14ZM20 12.611C20 12.611 18.105 12.006 18 12.006V9.99402C18.105 9.99402 20 9.38902 20 9.38902V12.611Z" fill="#FA6600" stroke="white" stroke-width="0.45"/>
</svg>
