<svg width="24" height="24" viewBox="0 0 24 24" fill="none" xmlns="http://www.w3.org/2000/svg">
<g clip-path="url(#clip0_2038_933)">
<path fill-rule="evenodd" clip-rule="evenodd" d="M2.50536 3.00149C2.43921 3.00088 2.3736 3.01338 2.31231 3.03827C2.25103 3.06317 2.19528 3.09996 2.14829 3.14652C2.1013 3.19307 2.06401 3.24848 2.03855 3.30954C2.0131 3.37059 2 3.43609 2 3.50224V17.5813C2.00002 17.6768 2.02731 17.7702 2.07865 17.8507C2.13 17.9311 2.20327 17.9952 2.28983 18.0354L6.07611 19.794C6.08211 19.4377 6.10535 19.0804 6.15943 18.7284L3.0015 17.2616V4.28701L8.46468 6.82481L8.48792 10.8621C8.66785 10.6805 8.86861 10.5208 9.08601 10.3863L9.06598 6.89752L14.8098 4.22933L14.8406 9.60618C15.0279 9.4571 15.2282 9.32536 15.4393 9.21259L15.4103 4.15842L21.0285 6.76813V12.5432C21.0293 12.5875 21.0293 12.6318 21.0285 12.6762V16.2611C21.3221 16.4835 21.5873 16.7419 21.8075 17.0393C21.8876 17.1467 21.9609 17.2576 22.03 17.371V6.44865C22.03 6.35321 22.0027 6.25976 21.9513 6.17932C21.9 6.09887 21.8267 6.03477 21.7402 5.99457L15.3975 3.04816C15.3299 3.01672 15.2561 3.00078 15.1815 3.00149C15.1102 3.00211 15.0399 3.01796 14.9752 3.04796L8.84345 5.89642L2.71167 3.04816C2.647 3.01809 2.57667 3.00218 2.50536 3.00149ZM8.51396 15.4632L8.51476 15.5553C8.53599 15.5473 8.55642 15.5367 8.57785 15.5289C8.55562 15.5078 8.53579 15.4848 8.51396 15.4632Z" fill="#FA6600"/>
<path d="M17.2233 9.56519C15.5638 9.56519 14.2188 10.9104 14.2188 12.5697C14.2188 14.229 15.5638 15.5742 17.2233 15.5742C18.8824 15.5742 20.2278 14.229 20.2278 12.5697C20.2278 10.9104 18.8824 9.56519 17.2233 9.56519ZM17.2233 16.0195C13.9043 16.0195 12.4161 17.5079 12.4161 20.8267V21.2273C12.4311 22.0164 12.78 22.0397 13.5177 22.0285H20.9288C21.8693 22.0277 22.0369 22.0295 22.0305 21.2273V20.8267C22.0305 17.5079 20.5419 16.0195 17.2233 16.0195ZM10.8137 10.6911C9.45426 10.6911 8.35181 11.7935 8.35181 13.1532C8.35181 14.5126 9.45426 15.6146 10.8137 15.6146C12.1731 15.6146 13.2754 14.5126 13.2754 13.153C13.2754 11.7933 12.1731 10.6911 10.8137 10.6911ZM10.8137 15.9794C8.09463 15.9794 6.875 17.1992 6.875 19.9181V20.2464C6.88742 20.893 7.17325 20.912 7.77755 20.9028H11.6079C11.5101 19.2827 11.9887 17.5622 13.1804 16.4683C12.5771 16.1386 11.7934 15.9794 10.8137 15.9794Z" fill="#FA6600"/>
</g>
<defs>
<clipPath id="clip0_2038_933">
<rect width="20.03" height="20.03" fill="white" transform="translate(2 2)"/>
</clipPath>
</defs>
</svg>
