<svg width="24" height="24" viewBox="0 0 24 24" fill="none" xmlns="http://www.w3.org/2000/svg">
<path d="M12 18V15M12 18C11.4696 18 10.9609 18.2107 10.5858 18.5858C10.2107 18.9609 10 19.4696 10 20M12 18C12.5304 18 13.0391 18.2107 13.4142 18.5858C13.7893 18.9609 14 19.4696 14 20M12 15C16.142 15 19.5 13.8805 19.5 12.5V4.5M12 15C7.858 15 4.5 13.8805 4.5 12.5V4.5M10 20H3M10 20C10 20.5304 10.2107 21.0391 10.5858 21.4142C10.9609 21.7893 11.4696 22 12 22C12.5304 22 13.0391 21.7893 13.4142 21.4142C13.7893 21.0391 14 20.5304 14 20M14 20H21" stroke="#FA6600" stroke-width="1.5" stroke-linecap="round" stroke-linejoin="round"/>
<path d="M19.5 8.5C19.5 9.8805 16.142 11 12 11C7.858 11 4.5 9.8805 4.5 8.5" stroke="#FA6600" stroke-width="1.5" stroke-linecap="round" stroke-linejoin="round"/>
<path d="M19.5 4.5C19.5 5.8805 16.142 7 12 7C7.858 7 4.5 5.8805 4.5 4.5C4.5 3.1195 7.858 2 12 2C16.142 2 19.5 3.1195 19.5 4.5Z" stroke="#FA6600" stroke-width="1.5" stroke-linecap="round" stroke-linejoin="round"/>
<path d="M19.5 4.5C19.5 5.8805 16.142 7 12 7C7.858 7 4.5 5.8805 4.5 4.5C4.5 3.1195 7.858 2 12 2C16.142 2 19.5 3.1195 19.5 4.5Z" stroke="#FA6600" stroke-width="1.5" stroke-linecap="round" stroke-linejoin="round"/>
</svg>
