<svg width="28" height="28" viewBox="0 0 28 28" fill="none" xmlns="http://www.w3.org/2000/svg">
<rect width="28" height="28" rx="14" fill="#FA6600"/>
<path d="M21.0643 14.0433C21.0643 10.1178 17.9016 6.93567 14.0008 6.93567C10.0982 6.93655 6.93555 10.1178 6.93555 14.0442C6.93555 17.591 9.51902 20.5312 12.8954 21.0644V16.0979H11.103V14.0442H12.8971V12.477C12.8971 10.6961 13.9523 9.71251 15.5654 9.71251C16.3388 9.71251 17.1467 9.85113 17.1467 9.85113V11.5993H16.2558C15.3791 11.5993 15.1054 12.1477 15.1054 12.7101V14.0433H17.0637L16.7512 16.097H15.1045V21.0636C18.4808 20.5303 21.0643 17.5901 21.0643 14.0433Z" fill="white"/>
</svg>
