<svg width="24" height="24" viewBox="0 0 24 24" fill="none" xmlns="http://www.w3.org/2000/svg">
<path d="M3.44111 9.95505C2.57455 10.8205 2.06146 11.9777 2.00192 13.201C1.94238 14.4243 2.34067 15.6259 3.11909 16.5714C3.89751 17.5169 5.00024 18.1385 6.21218 18.3151C7.42411 18.4916 8.65834 18.2103 9.67411 17.526L13.9301 21.783C14.0675 21.9236 14.2534 22.0065 14.4498 22.0149C14.6461 22.0233 14.8384 21.9566 14.9873 21.8283C15.1362 21.7 15.2307 21.5198 15.2515 21.3243C15.2722 21.1288 15.2178 20.9328 15.0991 20.776L15.0241 20.689L10.8071 16.471C11.5783 15.4822 11.9435 14.2365 11.8281 12.9877C11.7128 11.739 11.1256 10.5813 10.1862 9.75043C9.24691 8.9196 8.02611 8.47822 6.77264 8.51624C5.51917 8.55426 4.32837 9.06881 3.44111 9.95505ZM12.0251 1.99805C7.26911 1.99805 3.28911 5.31705 2.27411 9.76505C2.41411 9.58505 2.56744 9.41271 2.73411 9.24805C3.24595 8.73474 3.84801 8.32015 4.51011 8.02505C5.46074 6.23224 7.01937 4.83706 8.90611 4.09005L8.79911 4.26405C8.26111 5.15705 7.82811 6.27505 7.52411 7.54405C8.02311 7.59405 8.51511 7.70805 8.98911 7.88405C9.62111 5.25605 10.8121 3.49905 12.0261 3.49905L12.1411 3.50405C13.4071 3.62005 14.6291 5.62205 15.1971 8.50005H10.2001C10.8031 8.90201 11.3282 9.40988 11.7501 9.99905L15.4241 10C15.5996 11.6654 15.5543 13.3466 15.2891 15H12.6431C12.5645 15.2878 12.4646 15.5692 12.3441 15.842L12.2151 16.114L12.0931 16.343L12.2511 16.5H14.9661C14.7631 17.249 14.5161 17.918 14.2341 18.485L15.3401 19.592C15.8321 18.734 16.2311 17.684 16.5181 16.502L19.2411 16.5C18.3461 17.932 17.0467 19.0664 15.5071 19.76L15.7321 19.983L15.8571 20.123C16.0771 20.419 16.2021 20.748 16.2351 21.076C17.9657 20.2733 19.4306 18.9922 20.4568 17.3841C21.4831 15.7759 22.028 13.9078 22.0271 12C22.0271 6.47605 17.5491 1.99805 12.0261 1.99805M9.31411 11.048C9.63013 11.3614 9.88114 11.7341 10.0527 12.1448C10.2244 12.5554 10.3132 12.9959 10.3141 13.441C10.315 13.886 10.2281 14.3269 10.0582 14.7382C9.88829 15.1496 9.63884 15.5234 9.32413 15.8381C9.00943 16.1528 8.63567 16.4022 8.22431 16.5721C7.81296 16.742 7.3721 16.829 6.92704 16.828C6.48198 16.8271 6.04149 16.7383 5.63085 16.5667C5.22021 16.3951 4.8475 16.1441 4.53411 15.828C3.90462 15.1933 3.55225 14.335 3.55412 13.441C3.55599 12.547 3.91195 11.6902 4.54409 11.058C5.17623 10.4259 6.03306 10.0699 6.92704 10.0681C7.82102 10.0662 8.67933 10.4186 9.31411 11.048ZM16.9321 10L20.2901 9.99905L20.2981 10.029C20.4481 10.662 20.5281 11.321 20.5281 11.999C20.5288 13.0237 20.3441 14.0401 19.9831 14.999L16.8091 15.001C16.9521 14.051 17.0271 13.043 17.0271 12C17.0271 11.3147 16.9954 10.648 16.9321 10ZM15.1451 4.08905L15.1681 4.09705C17.2153 4.9142 18.8667 6.49213 19.7761 8.50005H16.7271C16.4141 6.74705 15.8671 5.22105 15.1451 4.08905Z" fill="#FA6600"/>
</svg>
