<svg width="29" height="28" viewBox="0 0 29 28" fill="none" xmlns="http://www.w3.org/2000/svg">
<rect x="0.322266" width="28" height="28" rx="14" fill="#FA6600"/>
<path d="M14.3203 11.6443C13.0231 11.6443 11.9645 12.7029 11.9645 14.0001C11.9645 15.2972 13.0231 16.3559 14.3203 16.3559C15.6175 16.3559 16.6761 15.2972 16.6761 14.0001C16.6761 12.7029 15.6175 11.6443 14.3203 11.6443ZM21.3858 14.0001C21.3858 13.0245 21.3946 12.0578 21.3399 11.084C21.2851 9.95296 21.027 8.94914 20.2 8.12205C19.3711 7.29319 18.3691 7.03693 17.238 6.98214C16.2625 6.92736 15.2958 6.93619 14.3221 6.93619C13.3465 6.93619 12.3799 6.92736 11.4061 6.98214C10.275 7.03693 9.27125 7.29495 8.44417 8.12205C7.61532 8.95091 7.35907 9.95296 7.30429 11.084C7.2495 12.0596 7.25834 13.0263 7.25834 14.0001C7.25834 14.9738 7.2495 15.9423 7.30429 16.9161C7.35907 18.0472 7.61709 19.051 8.44417 19.8781C9.27301 20.7069 10.275 20.9632 11.4061 21.018C12.3816 21.0728 13.3483 21.0639 14.3221 21.0639C15.2976 21.0639 16.2643 21.0728 17.238 21.018C18.3691 20.9632 19.3729 20.7052 20.2 19.8781C21.0288 19.0492 21.2851 18.0472 21.3399 16.9161C21.3964 15.9423 21.3858 14.9756 21.3858 14.0001V14.0001ZM14.3203 17.6248C12.3145 17.6248 10.6957 16.0059 10.6957 14.0001C10.6957 11.9942 12.3145 10.3753 14.3203 10.3753C16.3261 10.3753 17.945 11.9942 17.945 14.0001C17.945 16.0059 16.3261 17.6248 14.3203 17.6248ZM18.0934 11.0734C17.6251 11.0734 17.2469 10.6952 17.2469 10.2269C17.2469 9.75856 17.6251 9.38036 18.0934 9.38036C18.5617 9.38036 18.9399 9.75856 18.9399 10.2269C18.9401 10.3381 18.9183 10.4482 18.8758 10.551C18.8333 10.6538 18.7709 10.7472 18.6923 10.8258C18.6137 10.9044 18.5203 10.9668 18.4175 11.0093C18.3147 11.0518 18.2046 11.0736 18.0934 11.0734V11.0734Z" fill="white"/>
</svg>
