<svg width="28" height="28" viewBox="0 0 28 28" fill="none" xmlns="http://www.w3.org/2000/svg">
<rect width="28" height="28.0012" rx="14" fill="#FA6600"/>
<path fill-rule="evenodd" clip-rule="evenodd" d="M12.1841 11.8593H14.8081V13.1663C15.1861 12.4146 16.1554 11.7392 17.6115 11.7392C20.4028 11.7392 21.0655 13.2355 21.0655 15.981V21.0657H18.2395V16.6062C18.2395 15.0428 17.8616 14.161 16.8993 14.161C15.5647 14.161 15.0101 15.1113 15.0101 16.6055V21.0657H12.1841V11.8593ZM7.33825 20.9456H10.1643V11.7392H7.33825V20.9456ZM10.5691 8.73724C10.5692 8.97412 10.5222 9.20865 10.4309 9.4272C10.3395 9.64576 10.2057 9.84399 10.0371 10.0104C9.86797 10.1786 9.66737 10.3118 9.44675 10.4025C9.22612 10.4932 8.98979 10.5395 8.75125 10.5388C8.27055 10.5377 7.80943 10.3483 7.46683 10.0111C7.2989 9.84408 7.16554 9.64562 7.07437 9.42705C6.98321 9.20847 6.93603 8.97407 6.93555 8.73724C6.93555 8.25894 7.1263 7.80113 7.46754 7.46343C7.80928 7.12493 8.27096 6.93523 8.75196 6.93567C9.23379 6.93567 9.69584 7.12572 10.0371 7.46343C10.3783 7.80113 10.5691 8.25894 10.5691 8.73724Z" fill="white"/>
</svg>
