<svg width="40" height="40" viewBox="0 0 40 40" fill="none" xmlns="http://www.w3.org/2000/svg">
<rect width="40" height="40" rx="20" fill="white"/>
<path d="M12.4787 23.0507V20.8391H27.5205V23.0507M26.9107 13.9813H28.2378M26.636 17.0249L27.5738 17.9636M26.636 10.9387L27.5738 10M13.0885 13.9813H11.7614M13.3631 17.0249L12.4245 17.9636M13.3631 10.9387L12.4245 10M19.9996 18.0542V22.6089M10.0449 27.6773C10.0449 28.2933 10.2896 28.8841 10.7252 29.3197C11.1608 29.7553 11.7516 30 12.3676 30C12.9836 30 13.5744 29.7553 14.01 29.3197C14.4455 28.8841 14.6903 28.2933 14.6903 27.6773C14.6903 27.0613 14.4455 26.4705 14.01 26.035C13.5744 25.5994 12.9836 25.3547 12.3676 25.3547C11.7516 25.3547 11.1608 25.5994 10.7252 26.035C10.2896 26.4705 10.0449 27.0613 10.0449 27.6773ZM17.7871 25.4844H22.2111V29.9084H17.7871V25.4844ZM29.9543 29.9084H24.6449L27.2991 25.0418L29.9543 29.9084ZM23.3178 13.4089C23.3188 12.8104 23.158 12.2228 22.8523 11.7082C22.5466 11.1937 22.1074 10.7714 21.5813 10.4862C21.0551 10.2009 20.4617 10.0632 19.8637 10.0877C19.2657 10.1122 18.6855 10.298 18.1844 10.6254C17.6834 10.9528 17.2803 11.4096 17.0177 11.9474C16.7552 12.4853 16.643 13.0841 16.693 13.6805C16.743 14.2769 16.9534 14.8487 17.3019 15.3352C17.6503 15.8218 18.1239 16.2051 18.6725 16.4444V18.0542H21.3267V16.4453C21.9179 16.1877 22.4212 15.7632 22.7749 15.2239C23.1285 14.6846 23.3172 14.0538 23.3178 13.4089Z" stroke="#FA6600" stroke-width="1.5" stroke-linecap="round" stroke-linejoin="round"/>
</svg>
