<svg width="24" height="24" viewBox="0 0 24 24" fill="none" xmlns="http://www.w3.org/2000/svg">
<path d="M23.0054 11.3999C23.0301 11.3114 23.0594 11.2252 23.0804 11.1352L23.0909 11.0812C23.3054 10.2163 23.3047 9.31209 23.0888 8.44759C22.873 7.58308 22.4485 6.78466 21.8526 6.12217C21.3037 5.38329 20.5881 4.78437 19.7641 4.37412C18.94 3.96387 18.0308 3.75386 17.1104 3.76117H17.0714C16.9964 3.76117 16.9124 3.76642 16.8329 3.76867H16.7421C15.1572 3.85718 13.5817 4.07135 12.0306 4.40917L8.67288 3.87292H8.64663C7.04736 3.59633 5.40152 3.86022 3.96888 4.62292C3.16219 5.10999 2.46915 5.76416 1.93638 6.54142L1.90563 6.58267L1.88688 6.60892C1.18282 7.65334 0.799972 8.88106 0.785578 10.1405C0.771183 11.4 1.12588 12.6362 1.80588 13.6964C1.79163 13.7219 1.78338 13.7504 1.76988 13.7767C1.70495 13.9067 1.64955 14.0413 1.60413 14.1794C1.58013 14.2544 1.56213 14.3339 1.54488 14.4119C1.53088 14.4754 1.51888 14.5389 1.50888 14.6024C1.49913 14.6818 1.49362 14.7617 1.49238 14.8417C1.49238 14.9062 1.48488 14.9692 1.48788 15.0329C1.49288 15.1169 1.50238 15.2004 1.51638 15.2834C1.52538 15.3427 1.52988 15.4019 1.54338 15.4604C1.56638 15.5529 1.59538 15.6434 1.63038 15.7319C1.64763 15.7792 1.65888 15.8279 1.67988 15.8744C1.74138 16.0119 1.81638 16.1414 1.90488 16.2629C2.2443 16.7487 2.74496 17.0984 3.31788 17.2499C3.29662 17.5697 3.34991 17.8901 3.47355 18.1858C3.59719 18.4815 3.78781 18.7444 4.03038 18.9539C4.46021 19.3304 4.98729 19.5784 5.55138 19.6694C5.66763 20.0467 5.87163 20.3909 6.14613 20.6744C6.5207 21.0804 7.02681 21.3407 7.57488 21.4094C7.70538 21.8542 7.95288 22.2562 8.29188 22.5719C8.70963 22.9829 9.26913 23.2169 9.85488 23.2244C10.2855 23.2215 10.7084 23.1095 11.0841 22.8989C11.6421 23.2184 12.2961 23.3264 12.9276 23.2034C13.2591 23.1429 13.5733 23.0101 13.8477 22.8145C14.1221 22.6189 14.3501 22.3653 14.5154 22.0717C14.5311 22.0469 14.5401 22.0252 14.5544 22.0004C15.1919 22.1309 15.8556 22.0162 16.4129 21.6794C16.9029 21.4028 17.276 20.9577 17.4629 20.4269C18.1334 20.4359 18.7829 20.1944 19.2831 19.7482C19.557 19.5084 19.7697 19.2067 19.9035 18.8682C20.0373 18.5297 20.0885 18.1642 20.0526 17.8019C20.0526 17.7809 20.0474 17.7644 20.0459 17.7442C20.4373 17.6269 20.7894 17.4052 21.0644 17.1029C21.4199 16.7281 21.6487 16.2511 21.7187 15.7392C21.7887 15.2273 21.6962 14.7064 21.4544 14.2499C22.1289 13.471 22.6391 12.5639 22.9544 11.5829C22.9724 11.5252 22.9874 11.4622 23.0054 11.3999ZM21.7214 10.1249C21.6838 10.502 21.6009 10.8731 21.4746 11.2304L21.4506 11.3054C21.2012 11.9725 20.8417 12.5931 20.3871 13.1414C18.0344 11.0879 14.6121 8.09092 14.3309 7.82242C14.006 7.51154 13.5745 7.33661 13.1249 7.33342C12.9854 7.33178 12.8465 7.35177 12.7131 7.39267C12.2376 7.54267 11.0691 7.91767 10.0491 8.29642C9.65913 8.44117 9.21363 8.07142 9.07788 7.75642C8.98788 7.56742 8.97288 7.35142 9.03438 7.15192C9.15663 6.93067 9.36213 6.76642 9.60513 6.69592C11.9123 5.88497 14.3228 5.4052 16.7646 5.27092H16.8554C16.9386 5.27092 17.0211 5.26492 17.0976 5.26342C17.6578 5.25463 18.2138 5.36002 18.7319 5.57317C19.5005 5.92242 20.175 6.44941 20.6999 7.11067C21.1699 7.641 21.4981 8.28163 21.6539 8.97292L21.6606 9.00742C21.6974 9.19194 21.7202 9.37897 21.7289 9.56692C21.7311 9.62767 21.7349 9.70417 21.7349 9.77167C21.7349 9.88042 21.7349 9.98842 21.7221 10.0957L21.7214 10.1249ZM3.00513 15.1192C3.00063 15.0862 2.99888 15.0524 2.99988 15.0179C2.99177 14.9456 2.99177 14.8727 2.99988 14.8004C3.0088 14.758 3.01956 14.7159 3.03213 14.6744C3.04763 14.6074 3.06913 14.5427 3.09663 14.4802C3.12163 14.4352 3.14988 14.3922 3.18138 14.3512C3.22638 14.2772 3.28013 14.2109 3.34263 14.1524L3.34713 14.1487L4.75788 12.9524C4.85161 12.8802 4.95865 12.8272 5.07288 12.7965C5.18711 12.7657 5.30628 12.7577 5.42359 12.7731C5.54089 12.7884 5.65403 12.8267 5.75652 12.8858C5.859 12.9449 5.94884 13.0236 6.02088 13.1174C6.07371 13.194 6.10799 13.2819 6.12101 13.3741C6.13402 13.4662 6.12542 13.5602 6.09588 13.6484L3.88338 15.8039C3.73067 15.8065 3.5799 15.7695 3.44571 15.6966C3.31153 15.6237 3.1985 15.5172 3.11763 15.3877C3.06105 15.3074 3.02265 15.2158 3.00513 15.1192ZM4.89213 16.9154L7.31988 14.5499L7.30863 14.5387C7.44544 14.4713 7.59954 14.4472 7.75038 14.4697C7.94313 14.5222 8.11713 14.6302 8.24988 14.7802C8.38188 14.8927 8.47038 15.0472 8.50038 15.2182C8.51154 15.3914 8.47358 15.5643 8.39088 15.7169L8.37138 15.7807L5.91813 18.1709C5.74599 18.1785 5.57422 18.149 5.41452 18.0843C5.25482 18.0196 5.11093 17.9212 4.99263 17.7959C4.89547 17.6731 4.83458 17.5256 4.81682 17.37C4.79906 17.2144 4.82514 17.057 4.89213 16.9154ZM6.98088 19.2292L9.51588 16.7624C9.67713 16.7947 9.82488 16.8772 9.93738 16.9979C10.0929 17.134 10.2011 17.3161 10.2464 17.5177C10.2578 17.6044 10.254 17.6925 10.2351 17.7779L8.04288 19.9117C7.89662 19.9387 7.7459 19.9281 7.60487 19.8808C7.46384 19.8336 7.33712 19.7513 7.23663 19.6417C7.11943 19.5268 7.0317 19.3852 6.98088 19.2292ZM9.33363 21.4882C9.19766 21.3687 9.09048 21.22 9.02013 21.0532L11.0909 19.0379C11.2386 19.0867 11.3736 19.1669 11.4869 19.2727C11.5926 19.3571 11.6724 19.4697 11.7171 19.5974C11.7426 19.692 11.7426 19.7916 11.7171 19.8862C11.6238 20.1889 11.4677 20.4685 11.2589 20.7067L10.6919 21.3667H10.6964C10.6776 21.3787 10.6566 21.3839 10.6394 21.3974C10.428 21.5905 10.1558 21.7037 9.86988 21.7177C9.66801 21.7142 9.47552 21.6318 9.33363 21.4882ZM12.6891 21.7184C12.5781 21.7359 12.4666 21.7409 12.3546 21.7334L12.4101 21.6689L12.4281 21.6472L12.4289 21.6479C12.656 21.3668 12.8483 21.0593 13.0019 20.7322L13.3334 21.0832C13.3059 21.1542 13.2734 21.2224 13.2359 21.2879C13.1825 21.3958 13.1057 21.4904 13.0111 21.5649C12.9165 21.6393 12.8065 21.6918 12.6891 21.7184ZM17.4891 18.9247L16.1549 17.4464C16.0403 17.3124 15.8821 17.223 15.7082 17.1941C15.5342 17.1652 15.3556 17.1986 15.2039 17.2883C15.0521 17.3781 14.9368 17.5185 14.8784 17.6849C14.82 17.8513 14.8221 18.033 14.8844 18.1979C14.9191 18.2915 14.9721 18.3771 15.0404 18.4499L16.1174 19.6499C16.1099 19.7269 16.0941 19.8019 16.0701 19.8749C16.0076 20.0873 15.8651 20.2672 15.6726 20.3767C15.4382 20.5305 15.1536 20.5885 14.8776 20.5387L13.9776 19.5832C13.8806 19.4808 13.7564 19.4081 13.6196 19.3737C13.4828 19.3393 13.339 19.3446 13.2051 19.3889C13.1929 19.3162 13.1772 19.2441 13.1579 19.1729C13.0339 18.7811 12.8036 18.4314 12.4926 18.1627C12.2749 17.9635 12.0251 17.8025 11.7539 17.6864C11.7581 17.5469 11.7493 17.4073 11.7276 17.2694C11.6308 16.7587 11.3742 16.292 10.9949 15.9367C10.7191 15.6573 10.3781 15.4511 10.0026 15.3367C10.0066 15.2367 10.0029 15.1367 9.99138 15.0367C9.92111 14.5316 9.67967 14.0659 9.30738 13.7174C8.9683 13.3623 8.5326 13.1144 8.05413 13.0042C7.89138 12.9727 7.72539 12.9614 7.55988 12.9704C7.50116 12.6918 7.38212 12.4294 7.21113 12.2017C7.01858 11.9516 6.77861 11.742 6.50496 11.5848C6.2313 11.4276 5.92932 11.326 5.61632 11.2856C5.30332 11.2453 4.98544 11.2671 4.68087 11.3498C4.3763 11.4324 4.09103 11.5744 3.84138 11.7674L3.81513 11.7884L2.88888 12.5684C2.4544 11.7776 2.2465 10.8822 2.28805 9.9808C2.3296 9.07941 2.61899 8.20695 3.12438 7.45942L3.14013 7.43692C3.55091 6.82474 4.08953 6.30889 4.71888 5.92492C5.86707 5.32681 7.1819 5.12861 8.45538 5.36167L8.80338 5.41717C8.2894 5.64908 7.87879 6.0621 7.64988 6.57742C7.53926 6.86023 7.48663 7.16239 7.49514 7.46595C7.50364 7.7695 7.5731 8.06825 7.69938 8.34442C7.92404 8.88781 8.34303 9.32805 8.87465 9.57931C9.40627 9.83056 10.0124 9.8748 10.5749 9.70342C11.5649 9.33667 12.7004 8.96842 13.1249 8.83417C13.1586 8.83306 13.1922 8.83956 13.2231 8.85319C13.254 8.86682 13.2814 8.88724 13.3034 8.91292C13.6701 9.25792 18.0974 13.1332 19.9469 14.7449L20.0969 14.8732C20.2134 15.0618 20.2631 15.2841 20.2382 15.5044C20.2134 15.7247 20.1152 15.9303 19.9596 16.0882C19.8528 16.2034 19.7124 16.2821 19.5584 16.3132L18.2586 14.9954C18.1172 14.8608 17.9289 14.7863 17.7336 14.7878C17.5383 14.7894 17.3513 14.8667 17.2119 15.0035C17.0725 15.1403 16.9918 15.326 16.9867 15.5212C16.9816 15.7164 17.0526 15.906 17.1846 16.0499L18.4266 17.3084C18.4316 17.3309 18.4376 17.3532 18.4446 17.3752L18.4536 17.3984C18.5097 17.5586 18.5438 17.7256 18.5549 17.8949C18.5758 18.0235 18.5647 18.1553 18.5228 18.2786C18.4808 18.4019 18.4091 18.513 18.3141 18.6022C18.0899 18.8122 17.7936 18.9277 17.4869 18.9247H17.4891Z" fill="#FA6600"/>
</svg>
