<svg width="16" height="16" viewBox="0 0 16 16" fill="none" xmlns="http://www.w3.org/2000/svg">
<g clip-path="url(#clip0_113_290)">
<rect width="16" height="16" rx="8" fill="#00263E"/>
<path d="M3.57156 15.9527C3.42773 15.9002 3.26454 15.7259 3.22582 15.5766C3.15667 15.3193 3.27561 15.0483 3.51348 14.9293C3.69327 14.8408 3.83986 14.8408 4.02242 14.9321C4.3654 15.1036 4.42901 15.5406 4.14965 15.8172C3.98093 15.9859 3.79284 16.0302 3.57156 15.9527Z" fill="#FA6600"/>
<path d="M4.96776 15.4496C4.96776 15.3307 4.95946 15.2062 4.95117 15.173L4.93457 15.1094H6.72139H8.5082V15.386V15.6626H6.73798H4.96776V15.4496Z" fill="#FA6600"/>
<path d="M6.93188 14.0266V13.75H7.72019H8.50849V14.0266V14.3032H7.72019H6.93188V14.0266Z" fill="#FA6600"/>
<path d="M5.90853 12.7515C5.51853 12.5524 5.15065 12.3228 4.92108 12.1292L4.73022 11.9715L4.81044 11.8581C4.85469 11.7945 4.91278 11.6783 4.93767 11.6009L4.98469 11.457L5.14789 11.587C5.42725 11.8055 5.82831 12.0849 6.07172 12.2315L6.30406 12.3726H7.40768H8.50854V12.6353V12.8981H7.35513H6.19895L5.90853 12.7515Z" fill="#FA6600"/>
<path d="M3.51598 11.7474C3.25321 11.6284 3.12321 11.2688 3.25045 10.9978C3.34726 10.7903 3.53258 10.6797 3.78704 10.6797C3.97513 10.6797 4.16598 10.7931 4.24896 10.9535C4.39279 11.2412 4.24896 11.6478 3.96407 11.7556C3.85619 11.7971 3.61555 11.7916 3.51598 11.7474Z" fill="#FA6600"/>
<path d="M6.60293 11.4181C6.6057 11.3075 6.5974 11.1498 6.58633 11.0724C6.5725 10.97 6.57527 10.9258 6.5974 10.9258C6.61399 10.9258 6.62782 10.9396 6.62782 10.9534C6.62782 10.97 6.95974 10.9811 7.56825 10.9811H8.50868V11.2577V11.5343H7.59591C6.80761 11.5343 6.68038 11.5398 6.66655 11.5758C6.62782 11.6754 6.5974 11.6034 6.60293 11.4181Z" fill="#FA6600"/>
<path d="M6.99541 10.1901L5.71753 10.1818L5.74795 10.096C5.76455 10.0463 5.77008 9.93561 5.76178 9.83327L5.74519 9.65625H6.62753H7.50988L7.72562 9.73646C7.92201 9.80838 8.23179 9.89966 8.43371 9.94391C8.50009 9.96051 8.50839 9.97157 8.50839 10.085V10.2094L8.39222 10.2039C8.32584 10.1984 7.69796 10.1928 6.99541 10.1901Z" fill="#FA6600"/>
<path d="M2.75822 9.46225C2.68631 9.26863 2.53695 8.41118 2.53418 8.17331V8.08203L2.80248 8.09033L3.07078 8.09863L3.1178 8.41948C3.16205 8.70437 3.25057 9.1082 3.29759 9.22991C3.30865 9.25757 3.30035 9.27416 3.27822 9.27416C3.2312 9.27416 2.93248 9.42076 2.84673 9.48438C2.78588 9.52587 2.78312 9.52587 2.75822 9.46225Z" fill="#FA6600"/>
<path d="M9.15281 9.32814C8.00217 9.21751 6.74089 8.58963 5.92216 7.72112L5.68429 7.46941L4.3096 7.46112C3.55449 7.45835 2.84087 7.45282 2.72747 7.45282L2.52002 7.45005L2.52832 7.19558C2.53108 7.05452 2.54768 6.91346 2.56151 6.88303C2.57534 6.8526 2.59193 6.77792 2.5947 6.71707L2.603 6.60643H2.88513H3.17002L3.16172 6.75856L3.15619 6.90792L4.47279 6.91899L5.78939 6.93005L6.01897 6.68665C6.1462 6.55111 6.44769 6.24133 6.6911 6.00069L7.13365 5.5609L6.94557 4.34111C6.84323 3.66898 6.75748 3.11855 6.75472 3.11578C6.75195 3.11302 6.40344 3.02451 5.98301 2.92216C5.27216 2.74514 5.2196 2.73685 5.20577 2.78387C5.19471 2.83365 5.18918 2.83365 5.12833 2.79216C5.08407 2.75897 5.00109 2.74791 4.82407 2.74791C4.60003 2.74791 4.58067 2.74238 4.58067 2.69259C4.58067 2.66216 4.59726 2.63727 4.61662 2.6345C4.63322 2.6345 4.69684 2.57918 4.75492 2.5128C4.8462 2.40769 4.87662 2.33301 5.02045 1.83237C5.11173 1.52259 5.18088 1.26535 5.17811 1.26258C5.16705 1.25152 4.52258 1.63599 4.42024 1.7162L4.32896 1.78535L4.16577 1.63322C4.07449 1.54748 3.97492 1.4728 3.94449 1.46173C3.91407 1.45344 3.88917 1.43684 3.88917 1.42578C3.89194 1.37322 4.49492 1.00812 4.94854 0.781307C6.58876 -0.0429515 8.34238 -0.283591 10.1513 0.0649211C11.302 0.288964 12.4443 0.803434 13.4456 1.55578C13.8743 1.8794 14.5022 2.48238 14.7981 2.85855C15.6971 3.99813 16.2586 5.27877 16.4771 6.70601C16.5601 7.23431 16.5656 8.24942 16.4909 8.77772C16.419 9.29772 16.4605 9.2424 16.1258 9.25346C15.9184 9.259 15.8382 9.25346 15.8382 9.22857C15.8382 9.21197 15.8547 9.1124 15.8769 9.00729C15.9875 8.48729 16.0124 7.49984 15.935 6.87473C15.8907 6.51239 15.7718 5.97026 15.6694 5.65217C15.5643 5.33132 15.4482 5.04366 15.4205 5.04366C15.4067 5.04366 15.3956 5.05749 15.3956 5.07132C15.3956 5.14324 15.343 5.08515 15.2739 4.93579C14.9199 4.16962 14.4081 3.40068 13.8909 2.86685C13.7333 2.70089 13.7084 2.66493 13.7581 2.66493C13.7913 2.66493 13.819 2.65387 13.819 2.64004C13.819 2.62621 13.7277 2.53216 13.6198 2.42706C12.8011 1.66642 11.7445 1.07173 10.6547 0.759179C9.97707 0.565561 9.31047 0.471518 8.67706 0.485348L8.25387 0.493646L8.67983 0.900243L9.10855 1.30684L9.4377 1.37876C10.3643 1.5862 11.2826 2.02323 12.0986 2.64004C12.1981 2.71472 12.2949 2.77557 12.3143 2.77557C12.3918 2.77557 12.3503 2.85855 12.2479 2.9111C12.1898 2.94153 12.0958 3.01621 12.0405 3.07706C11.9381 3.19046 11.8552 3.22366 11.8552 3.15451C11.8552 3.06876 11.1526 2.62067 10.6354 2.37727C10.2343 2.18642 9.92451 2.07854 9.42111 1.94854L9.01728 1.84344L8.89557 1.92642C8.19855 2.3994 7.31897 3.03557 7.31897 3.06876C7.31897 3.10472 7.49599 4.31621 7.6177 5.09621C7.64812 5.30366 7.67855 5.41983 7.70621 5.43643C7.72834 5.44749 8.21791 5.68813 8.79047 5.97026L9.83324 6.48196L10.6437 5.97579C11.6947 5.31749 11.9381 5.15707 11.9381 5.12387C11.9381 5.04919 12.0239 5.11834 12.129 5.28153C12.1954 5.38111 12.2645 5.46962 12.2866 5.47792C12.3088 5.48622 12.3254 5.52771 12.3254 5.5692C12.3254 5.63281 12.3143 5.64388 12.2728 5.63281C12.2341 5.62451 11.8939 5.82643 11.172 6.28558C10.5966 6.65069 10.1181 6.95494 10.1071 6.95771C10.0988 6.96324 10.0628 7.34495 10.0296 7.80963C9.9992 8.27431 9.96047 8.77495 9.94664 8.92155C9.93281 9.07091 9.92728 9.22857 9.93558 9.27559L9.95494 9.35857L9.66728 9.3558C9.50962 9.35304 9.27728 9.34197 9.15281 9.32814Z" fill="#FA6600"/>
<path d="M13.7637 9.25396C13.7637 9.24842 13.7996 9.10459 13.8467 8.9331C13.9932 8.36608 14.0264 8.09502 14.0264 7.40352C14.0264 6.83373 14.0209 6.76735 13.9794 6.73693C13.8992 6.67884 13.9213 6.66501 14.1039 6.66501C14.2007 6.66224 14.3058 6.64565 14.3445 6.62352C14.3832 6.60139 14.4441 6.5848 14.4828 6.58203C14.5492 6.58203 14.552 6.58756 14.5658 6.82544C14.5907 7.27905 14.5713 8.05629 14.5271 8.35225C14.505 8.51268 14.4496 8.78374 14.4081 8.95523L14.3335 9.26502H14.0486C13.8909 9.26502 13.7637 9.25949 13.7637 9.25396Z" fill="#FA6600"/>
<path d="M4.92952 6.30295C4.86314 6.28359 4.77462 6.2255 4.69994 6.15359L4.57824 6.03189H2.32674C0.210779 6.03189 0.072481 6.03465 0.0475873 6.08167C0.0254595 6.1204 0.0199276 6.10933 0.0171616 6.02636C0.0171616 5.97104 0.0282255 5.89635 0.0420553 5.8604C0.0586511 5.81614 0.0531192 5.75806 0.0282255 5.68614C0.00886372 5.62529 -0.010498 5.53125 -0.010498 5.47869C-0.00773208 5.39295 -0.00496611 5.38742 0.0282255 5.43167C0.0614171 5.47593 0.205247 5.47869 2.33228 5.47869H4.5976L4.68058 5.39295C4.85207 5.2104 5.08165 5.15508 5.29463 5.24635C5.67633 5.40401 5.77314 5.87146 5.48271 6.15912C5.32229 6.32231 5.15909 6.3638 4.92952 6.30295Z" fill="#FA6600"/>
<path d="M3.44107 4.93845C3.30554 4.93292 3.19766 4.92462 3.19766 4.91909C3.19766 4.91355 3.21703 4.85547 3.23915 4.79185C3.26128 4.72823 3.28064 4.66462 3.28064 4.65079C3.28064 4.63696 3.00128 4.62589 2.6583 4.62589H2.03596V4.42121C2.03596 4.31057 2.02766 4.17781 2.01936 4.13079L2 4.04227L2.80766 4.04781L3.61532 4.05057L3.75362 3.821C3.83107 3.69376 3.95001 3.51121 4.01639 3.4144C4.15192 3.21802 4.15469 3.21525 4.0966 3.21525C4.04682 3.21525 4.04128 3.1627 4.09107 3.14334C4.11043 3.1378 4.31788 3.13504 4.55022 3.1378L4.97341 3.1461L4.77703 3.35355C4.58618 3.55823 4.29575 3.93164 4.25979 4.02568C4.24597 4.06164 4.25703 4.0727 4.30682 4.0727C4.41192 4.0727 4.43405 4.10313 4.44788 4.28291C4.45618 4.37419 4.48384 4.49036 4.50873 4.53738L4.55575 4.62589H4.23767H3.92235L3.88086 4.71717C3.85596 4.76696 3.82554 4.84164 3.80894 4.88313C3.78958 4.93015 3.76192 4.95504 3.7315 4.95228C3.70384 4.94951 3.57384 4.94121 3.44107 4.93845Z" fill="#FA6600"/>
<path d="M2.21025 3.42427C1.98621 3.28874 1.8894 3.02321 1.96408 2.76597C2.03323 2.52257 2.26004 2.35938 2.52004 2.35938C2.64451 2.35938 2.87685 2.47831 2.95706 2.58618C3.15068 2.84065 3.09259 3.21959 2.82983 3.40214C2.73855 3.46576 2.68323 3.47959 2.5228 3.48789C2.35131 3.49619 2.31259 3.48789 2.21025 3.42427Z" fill="#FA6600"/>
<path d="M9.27603 15.6262C9.25095 14.8913 9.25597 11.2776 9.28355 11.0482C9.34624 10.5206 9.6622 10.1614 10.1412 10.0758C10.2916 10.0509 16.2798 10.0343 16.2798 10.0592C16.2798 10.0647 16.2396 10.2001 16.1895 10.3576C15.9362 11.1643 15.4071 12.2003 14.8855 12.9214C14.6398 13.2612 13.9051 14.0597 13.5916 14.3249C12.3504 15.383 10.9636 15.9908 9.55688 16.0875L9.29108 16.1069L9.27603 15.6262Z" fill="#FA6600"/>
<path d="M1.82901 14.5433C1.32837 14.2362 1.53305 13.495 2.11943 13.4922C2.28816 13.4922 2.47624 13.5752 2.54816 13.6886L2.58965 13.7522H4.39582H6.19923L6.19094 14.015L6.18264 14.2777H4.40689H2.63114L2.57582 14.3607C2.47348 14.5156 2.32688 14.593 2.1222 14.6041C1.9673 14.6096 1.92305 14.6013 1.82901 14.5433Z" fill="#FA6600"/>
<path d="M0.777483 13.1851C0.763653 13.1796 0.716631 13.1685 0.672376 13.1602C0.572801 13.1381 0.376417 12.9583 0.329396 12.8477C0.246417 12.6458 0.29897 12.3719 0.453864 12.2143C0.680674 11.9875 1.14536 12.0207 1.29472 12.2751L1.35004 12.3692H2.78281H4.21558L4.26537 12.4466C4.29026 12.4881 4.39537 12.6043 4.49218 12.7094L4.67197 12.8947H3.01792H1.36387L1.26982 13.0053C1.15642 13.1353 0.907483 13.2294 0.777483 13.1851Z" fill="#FA6600"/>
<path d="M6.00527 11.7708C5.80889 11.6685 5.71484 11.5191 5.71484 11.3034C5.71484 11.1678 5.77016 11.0046 5.84761 10.9217C6.03293 10.717 6.42293 10.7198 6.60272 10.9244C6.68293 11.0157 6.69123 11.0489 6.694 11.3227C6.69676 11.497 6.6857 11.5495 6.63868 11.6132C6.51144 11.7874 6.19059 11.8676 6.00527 11.7708Z" fill="#FA6600"/>
<path d="M4.3653 10.4822C4.23253 10.4435 4.0721 10.2692 4.03061 10.1171C3.92827 9.75754 4.18274 9.40903 4.54785 9.40626C5.06232 9.40349 5.29189 10.0092 4.91019 10.3633C4.75806 10.5016 4.57551 10.5431 4.3653 10.4822Z" fill="#FA6600"/>
<path d="M4.91814 9.07821C4.69963 9.01459 4.51984 8.69651 4.56686 8.4531C4.62495 8.13501 4.92644 7.9248 5.21686 7.99948C5.66772 8.11565 5.80878 8.63289 5.4741 8.94821C5.32474 9.09204 5.12835 9.13906 4.91814 9.07821Z" fill="#FA6600"/>
<path d="M1.02673 7.66561C0.658855 7.43603 0.639494 6.93539 0.988005 6.70305C1.37247 6.44858 1.90077 6.79709 1.83163 7.25901C1.80673 7.41114 1.67673 7.59369 1.53843 7.66561C1.40843 7.73752 1.14013 7.73752 1.02673 7.66561Z" fill="#FA6600"/>
<path d="M14.0239 6.75638C13.8607 6.68447 12.262 5.61957 12.1679 5.51723C12.0684 5.40936 11.9079 5.16042 11.9273 5.14383C11.9384 5.13 11.8996 3.98212 11.8664 3.4151L11.8499 3.10807L11.9633 2.9836C12.1209 2.81488 12.2233 2.77892 12.6547 2.74573C12.8843 2.72914 13.0337 2.70424 13.0475 2.68488C13.0586 2.66552 13.0862 2.65999 13.1167 2.67382C13.1803 2.69871 13.5205 2.69318 13.7086 2.66275L13.8469 2.64062L14.0073 2.80935C14.3116 3.12744 14.6933 3.63914 14.9588 4.08446C15.122 4.35829 15.4484 5.02212 15.4262 5.03872C15.4152 5.04702 15.2852 5.28212 15.1331 5.56425C14.5218 6.7066 14.5605 6.64575 14.4526 6.70106C14.3337 6.75915 14.1041 6.78958 14.0239 6.75638Z" fill="#FA6600"/>
<path d="M-0.569416 6.31228C-0.771332 6.27079 -0.948354 6.0744 -0.992609 5.83653C-1.05069 5.52951 -0.757502 5.20312 -0.425586 5.20312C-0.13516 5.20312 0.102714 5.4244 0.144203 5.73696C0.177395 5.96653 0.000372825 6.22377 -0.240266 6.29568C-0.389629 6.33994 -0.411756 6.3427 -0.569416 6.31228Z" fill="#FA6600"/>
<path d="M0.675323 4.86496C0.282555 4.62985 0.293619 4.08495 0.694684 3.88857C0.816387 3.83048 0.874472 3.81665 0.982345 3.82772C1.28937 3.85814 1.48575 4.05729 1.50511 4.35602C1.51618 4.51368 1.50788 4.53857 1.42213 4.66304C1.3032 4.84283 1.14277 4.92857 0.932558 4.92857C0.821919 4.92857 0.750004 4.91198 0.675323 4.86496Z" fill="#FA6600"/>
<path d="M3.88095 3.19789L3.69286 3.18683L3.70946 3.00151C3.72052 2.89087 3.71499 2.78577 3.69839 2.74151L3.66797 2.66406H3.90031H4.12989L4.14648 2.85215C4.17691 3.16194 4.17137 3.21726 4.11882 3.21172C4.09116 3.20896 3.98329 3.20343 3.88095 3.19789Z" fill="#FA6600"/>
<path d="M4.86885 3.2515C4.88545 3.22385 4.8163 3.21555 4.52034 3.21831C4.31842 3.22108 4.1331 3.22108 4.11098 3.22108C4.07778 3.21831 4.06672 3.17129 4.06119 3.00533C4.05842 2.8864 4.05289 2.76469 4.04736 2.73427C4.04183 2.68448 4.06395 2.67618 4.24927 2.65959C4.45119 2.64299 5.02928 2.65682 5.15651 2.68172C5.25055 2.70108 5.23119 2.77023 5.06247 3.01087C4.91587 3.21831 4.82183 3.33725 4.86885 3.2515Z" fill="#FA6600"/>
<path d="M13.0449 2.69172C13.0449 2.67789 13.0615 2.66406 13.0836 2.66406C13.1058 2.66406 13.1334 2.67789 13.1417 2.69172C13.15 2.70832 13.1334 2.71938 13.103 2.71938C13.0698 2.71938 13.0449 2.70832 13.0449 2.69172Z" fill="#FA6600"/>
</g>
<defs>
<clipPath id="clip0_113_290">
<rect width="16" height="16" rx="8" fill="white"/>
</clipPath>
</defs>
</svg>
