<svg width="100" height="67" viewBox="0 0 100 67" fill="none" xmlns="http://www.w3.org/2000/svg">
<g clip-path="url(#clip0_114_361)">
<path d="M54.4854 36.6402C50.0089 36.2097 45.102 33.767 41.9167 30.3881L40.9913 29.4089L35.6432 29.3766C32.7055 29.3658 29.9292 29.3443 29.488 29.3443L28.6809 29.3336L28.7132 28.3436C28.724 27.7948 28.7885 27.246 28.8423 27.1276C28.8961 27.0092 28.9607 26.7187 28.9715 26.4819L29.0037 26.0515H30.1013H31.2097L31.1774 26.6433L31.1559 27.2244L36.2781 27.2675L41.4002 27.3105L42.2934 26.3636C42.7884 25.8363 43.9613 24.6311 44.9083 23.6949L46.63 21.9839L45.8983 17.2384C45.5001 14.6235 45.1665 12.4821 45.1558 12.4713C45.145 12.4606 43.7891 12.1162 42.1535 11.7181C39.3879 11.0294 39.1835 10.9971 39.1297 11.18C39.0866 11.3737 39.0651 11.3737 38.8284 11.2123C38.6562 11.0832 38.3334 11.0401 37.6447 11.0401C36.7731 11.0401 36.6977 11.0186 36.6977 10.8249C36.6977 10.7065 36.7623 10.6097 36.8376 10.5989C36.9022 10.5989 37.1497 10.3837 37.3757 10.1254C37.7308 9.71654 37.8491 9.426 38.4087 7.47828C38.7638 6.27307 39.0328 5.27231 39.0221 5.26155C38.979 5.21851 36.4718 6.71426 36.0736 7.02633L35.7185 7.29535L35.0836 6.7035C34.7285 6.36992 34.3411 6.07937 34.2227 6.03633C34.1044 6.00405 34.0075 5.93948 34.0075 5.89644C34.0183 5.69198 36.3642 4.27155 38.1289 3.38916C44.5101 0.182432 51.3325 -0.753762 58.3701 0.602104C62.8466 1.47373 67.2908 3.47525 71.1862 6.4022C72.8542 7.66122 75.2969 10.0071 76.4483 11.4706C79.9456 15.904 82.13 20.8863 82.9801 26.4389C83.303 28.4942 83.3245 32.4434 83.0339 34.4988C82.7541 36.5218 82.9156 36.3066 81.6135 36.3496C80.8064 36.3711 80.4944 36.3496 80.4944 36.2528C80.4944 36.1882 80.5589 35.8008 80.645 35.3919C81.0755 33.3689 81.1723 29.5273 80.871 27.0953C80.6988 25.6856 80.2361 23.5765 79.838 22.339C79.429 21.0908 78.9771 19.9716 78.8695 19.9716C78.8157 19.9716 78.7726 20.0254 78.7726 20.0792C78.7726 20.359 78.5682 20.133 78.2992 19.5519C76.9218 16.5712 74.931 13.5797 72.9187 11.5028C72.3054 10.8572 72.2085 10.7173 72.4022 10.7173C72.5313 10.7173 72.639 10.6743 72.639 10.6204C72.639 10.5666 72.2838 10.2008 71.8642 9.79186C68.679 6.83263 64.5683 4.51905 60.3285 3.30308C57.6921 2.54982 55.0988 2.18395 52.6345 2.23775L50.9881 2.27003L52.6453 3.85188L54.3132 5.43372L55.5938 5.7135C59.1987 6.52057 62.7713 8.22078 65.9457 10.6204C66.3331 10.911 66.7097 11.1477 66.7851 11.1477C67.0864 11.1477 66.9249 11.4706 66.5268 11.675C66.3008 11.7934 65.9349 12.0839 65.7197 12.3207C65.3216 12.7619 64.9988 12.891 64.9988 12.622C64.9988 12.2884 62.2655 10.5451 60.2532 9.59817C58.6929 8.85567 57.4877 8.436 55.5292 7.93024L53.9581 7.52133L53.4847 7.84415C50.7729 9.68426 47.351 12.1592 47.351 12.2884C47.351 12.4283 48.0397 17.1415 48.5131 20.1761C48.6315 20.9831 48.7499 21.4351 48.8575 21.4997C48.9436 21.5427 50.8482 22.4789 53.0757 23.5765L57.1326 25.5673L60.2855 23.598C64.3746 21.0369 65.3216 20.4128 65.3216 20.2837C65.3216 19.9931 65.6552 20.2622 66.0641 20.8971C66.3223 21.2844 66.5914 21.6288 66.6774 21.6611C66.7635 21.6934 66.8281 21.8548 66.8281 22.0162C66.8281 22.2637 66.7851 22.3067 66.6236 22.2637C66.473 22.2314 65.1494 23.0169 62.3408 24.8032C60.1026 26.2237 58.2409 27.4074 58.1979 27.4181C58.1656 27.4396 58.0257 28.9246 57.8966 30.7325C57.7782 32.5403 57.6276 34.488 57.5738 35.0583C57.52 35.6394 57.4984 36.2528 57.5307 36.4357L57.6061 36.7585L56.4869 36.7478C55.8736 36.737 54.9696 36.694 54.4854 36.6402Z" fill="#00263E"/>
<path d="M32.2641 19.572C31.7368 19.5505 31.3172 19.5182 31.3172 19.4967C31.3172 19.4752 31.3925 19.2492 31.4786 19.0017C31.5647 18.7542 31.64 18.5067 31.64 18.4529C31.64 18.3991 30.5531 18.3561 29.2188 18.3561H26.7976V17.5598C26.7976 17.1293 26.7653 16.6128 26.733 16.4299L26.6577 16.0855L29.7999 16.107L32.942 16.1178L33.4801 15.2246C33.7814 14.7297 34.2441 14.0194 34.5024 13.6428C35.0297 12.8788 35.0404 12.868 34.8144 12.868C34.6207 12.868 34.5992 12.6636 34.7929 12.5882C34.8682 12.5667 35.6753 12.556 36.5792 12.5667L38.2256 12.599L37.4616 13.4061C36.7191 14.2024 35.5892 15.6551 35.4493 16.021C35.3955 16.1608 35.4386 16.2039 35.6323 16.2039C36.0412 16.2039 36.1273 16.3223 36.1811 17.0217C36.2133 17.3768 36.321 17.8288 36.4178 18.0117L36.6007 18.3561H35.3632H34.1365L33.9751 18.7112C33.8782 18.9049 33.7599 19.1954 33.6953 19.3568C33.62 19.5397 33.5124 19.6366 33.394 19.6258C33.2864 19.6151 32.7806 19.5828 32.2641 19.572Z" fill="#00263E"/>
<path d="M27.4756 13.6742C26.604 13.1469 26.2274 12.1139 26.5179 11.1131C26.7869 10.1661 27.6693 9.53125 28.6808 9.53125C29.1651 9.53125 30.069 9.99397 30.381 10.4136C31.1343 11.4036 30.9083 12.8779 29.886 13.5881C29.5309 13.8356 29.3157 13.8894 28.6916 13.9217C28.0244 13.954 27.8738 13.9217 27.4756 13.6742Z" fill="#00263E"/>
<path d="M73.4353 26.6528C72.8004 26.373 66.5807 22.2301 66.2148 21.8319C65.8274 21.4122 65.2033 20.4438 65.2786 20.3792C65.3216 20.3254 65.171 15.8596 65.0419 13.6537L64.9773 12.4592L65.4185 11.975C66.0319 11.3186 66.43 11.1787 68.1087 11.0495C69.0019 10.985 69.5829 10.8881 69.6367 10.8128C69.6798 10.7375 69.7874 10.716 69.9058 10.7698C70.1533 10.8666 71.4768 10.8451 72.2086 10.7267L72.7466 10.6406L73.3708 11.297C74.5544 12.5345 76.0394 14.5253 77.0725 16.2578C77.7074 17.3231 78.9772 19.9057 78.8911 19.9703C78.848 20.0026 78.3423 20.9172 77.7504 22.0148C75.3723 26.4591 75.5229 26.2223 75.1032 26.4375C74.6405 26.6635 73.7474 26.7819 73.4353 26.6528Z" fill="#FA6600"/>
<path d="M21.5035 19.2911C19.9754 18.3764 20.0185 16.2566 21.5788 15.4925C22.0523 15.2666 22.2782 15.2128 22.6979 15.2558C23.8924 15.3742 24.6564 16.149 24.7317 17.3111C24.7748 17.9245 24.7425 18.0213 24.4089 18.5056C23.9462 19.205 23.322 19.5386 22.5042 19.5386C22.0738 19.5386 21.794 19.4741 21.5035 19.2911Z" fill="#FA6600"/>
<path d="M33.9753 12.7917L33.2436 12.7486L33.3081 12.0277C33.3512 11.5972 33.3297 11.1883 33.2651 11.0161L33.1467 10.7148H34.0506H34.9438L35.0084 11.4466C35.1267 12.6518 35.1052 12.867 34.9007 12.8455C34.7931 12.8347 34.3735 12.8132 33.9753 12.7917Z" fill="#FA6600"/>
<path d="M37.817 12.999C37.8815 12.8914 37.6125 12.8591 36.4611 12.8698C35.6756 12.8806 34.9546 12.8806 34.8685 12.8806C34.7394 12.8698 34.6963 12.6869 34.6748 12.0413C34.664 11.5785 34.6425 11.1051 34.621 10.9867C34.5995 10.793 34.6856 10.7607 35.4065 10.6962C36.1921 10.6316 38.4411 10.6854 38.9361 10.7822C39.302 10.8576 39.2266 11.1266 38.5702 12.0628C37.9999 12.8698 37.634 13.3326 37.817 12.999Z" fill="#FA6600"/>
<path d="M69.6262 10.8225C69.6262 10.7686 69.6908 10.7148 69.7769 10.7148C69.863 10.7148 69.9706 10.7686 70.0029 10.8225C70.0351 10.887 69.9706 10.9301 69.8522 10.9301C69.7231 10.9301 69.6262 10.887 69.6262 10.8225Z" fill="#FA6600"/>
</g>
<path d="M3.81916 40.7461L0.358046 26.2253H4.17721L6.78299 38.2597L6.16635 37.8022H7.77756L7.08136 38.2597L9.05061 26.7425H12.0542L9.32909 40.7461H3.81916ZM12.4521 40.7461L9.52801 26.7425H12.6907L14.9982 38.2597L14.302 37.8022H15.8137L15.2965 38.2597L17.5443 26.2253H21.1247L18.0813 40.7461H12.4521ZM29.8055 41.1439C28.4794 41.1439 27.3257 40.9185 26.3444 40.4676C25.3631 40.0035 24.5475 39.4001 23.8977 38.6575C23.2479 37.9016 22.7639 37.0861 22.4456 36.2108C22.1274 35.3356 21.9682 34.4869 21.9682 33.6647V33.2271C21.9682 32.3121 22.134 31.417 22.4655 30.5418C22.7971 29.6533 23.2943 28.851 23.9574 28.1349C24.6204 27.4188 25.436 26.8486 26.404 26.4242C27.3854 25.9999 28.5192 25.7877 29.8055 25.7877C31.0785 25.7877 32.1991 25.9999 33.1671 26.4242C34.1484 26.8486 34.9706 27.4188 35.6337 28.1349C36.2967 28.851 36.794 29.6533 37.1255 30.5418C37.4703 31.417 37.6427 32.3121 37.6427 33.2271V33.6647C37.6427 34.4869 37.4769 35.3356 37.1454 36.2108C36.8272 37.0861 36.3431 37.9016 35.6933 38.6575C35.0436 39.4001 34.228 40.0035 33.2467 40.4676C32.2654 40.9185 31.1183 41.1439 29.8055 41.1439ZM29.8055 37.6828C30.442 37.6828 31.0122 37.5767 31.5161 37.3645C32.0201 37.1524 32.451 36.854 32.8091 36.4694C33.1671 36.0849 33.439 35.6406 33.6246 35.1367C33.8103 34.6195 33.9031 34.0626 33.9031 33.4658C33.9031 32.8293 33.8037 32.2524 33.6047 31.7353C33.4191 31.2181 33.1472 30.7738 32.7892 30.4025C32.4311 30.0312 32.0002 29.7461 31.4963 29.5472C30.9923 29.3483 30.4287 29.2488 29.8055 29.2488C29.169 29.2488 28.5987 29.3483 28.0948 29.5472C27.5909 29.7461 27.1599 30.0312 26.8019 30.4025C26.4438 30.7738 26.172 31.2181 25.9863 31.7353C25.8007 32.2524 25.7078 32.8293 25.7078 33.4658C25.7078 34.0626 25.8007 34.6195 25.9863 35.1367C26.172 35.6406 26.4438 36.0849 26.8019 36.4694C27.1599 36.854 27.5909 37.1524 28.0948 37.3645C28.5987 37.5767 29.169 37.6828 29.8055 37.6828ZM43.1777 40.8257V37.3645H45.5646C46.1879 37.3645 46.7449 37.2784 47.2355 37.106C47.7394 36.9203 48.1638 36.6617 48.5086 36.3302C48.8534 35.9854 49.1186 35.5743 49.3042 35.0969C49.4899 34.6063 49.5827 34.0559 49.5827 33.4459C49.5827 32.8094 49.4899 32.2524 49.3042 31.775C49.1186 31.2844 48.8534 30.8799 48.5086 30.5617C48.1638 30.2301 47.7394 29.9848 47.2355 29.8257C46.7449 29.6533 46.1879 29.5671 45.5646 29.5671H43.1777V26.106H45.4055C46.7183 26.106 47.8654 26.2916 48.8467 26.6629C49.8413 27.0343 50.6701 27.5514 51.3332 28.2145C51.9962 28.8643 52.4935 29.6201 52.825 30.4821C53.1565 31.3441 53.3223 32.2591 53.3223 33.2271V33.6647C53.3223 34.5532 53.1565 35.4284 52.825 36.2904C52.4935 37.1391 51.9962 37.9082 51.3332 38.5978C50.6701 39.2741 49.8413 39.8178 48.8467 40.2289C47.8654 40.6267 46.7183 40.8257 45.4055 40.8257H43.1777ZM39.8757 40.8257V26.106H43.5755V40.8257H39.8757ZM62.4787 41.1439C61.1526 41.1439 59.9989 40.9185 59.0176 40.4676C58.0363 40.0035 57.2208 39.4001 56.571 38.6575C55.9212 37.9016 55.4372 37.0861 55.1189 36.2108C54.8006 35.3356 54.6415 34.4869 54.6415 33.6647V33.2271C54.6415 32.3121 54.8073 31.417 55.1388 30.5418C55.4703 29.6533 55.9676 28.851 56.6307 28.1349C57.2937 27.4188 58.1093 26.8486 59.0773 26.4242C60.0586 25.9999 61.1924 25.7877 62.4787 25.7877C63.7518 25.7877 64.8723 25.9999 65.8404 26.4242C66.8217 26.8486 67.6439 27.4188 68.3069 28.1349C68.97 28.851 69.4673 29.6533 69.7988 30.5418C70.1436 31.417 70.316 32.3121 70.316 33.2271V33.6647C70.316 34.4869 70.1502 35.3356 69.8187 36.2108C69.5004 37.0861 69.0164 37.9016 68.3666 38.6575C67.7168 39.4001 66.9013 40.0035 65.92 40.4676C64.9387 40.9185 63.7916 41.1439 62.4787 41.1439ZM62.4787 37.6828C63.1153 37.6828 63.6855 37.5767 64.1894 37.3645C64.6933 37.1524 65.1243 36.854 65.4824 36.4694C65.8404 36.0849 66.1122 35.6406 66.2979 35.1367C66.4836 34.6195 66.5764 34.0626 66.5764 33.4658C66.5764 32.8293 66.4769 32.2524 66.278 31.7353C66.0924 31.2181 65.8205 30.7738 65.4625 30.4025C65.1044 30.0312 64.6734 29.7461 64.1695 29.5472C63.6656 29.3483 63.102 29.2488 62.4787 29.2488C61.8422 29.2488 61.272 29.3483 60.7681 29.5472C60.2642 29.7461 59.8332 30.0312 59.4751 30.4025C59.1171 30.7738 58.8452 31.2181 58.6596 31.7353C58.4739 32.2524 58.3811 32.8293 58.3811 33.4658C58.3811 34.0626 58.4739 34.6195 58.6596 35.1367C58.8452 35.6406 59.1171 36.0849 59.4751 36.4694C59.8332 36.854 60.2642 37.1524 60.7681 37.3645C61.272 37.5767 61.8422 37.6828 62.4787 37.6828ZM75.0452 40.7461V29.0499H78.745V40.7461H75.0452ZM71.0669 29.4477V26.2253H82.7233V29.4477H71.0669ZM91.3058 41.1439C89.9797 41.1439 88.826 40.9185 87.8447 40.4676C86.8634 40.0035 86.0478 39.4001 85.398 38.6575C84.7483 37.9016 84.2642 37.0861 83.946 36.2108C83.6277 35.3356 83.4686 34.4869 83.4686 33.6647V33.2271C83.4686 32.3121 83.6343 31.417 83.9659 30.5418C84.2974 29.6533 84.7947 28.851 85.4577 28.1349C86.1208 27.4188 86.9363 26.8486 87.9044 26.4242C88.8857 25.9999 90.0195 25.7877 91.3058 25.7877C92.5789 25.7877 93.6994 25.9999 94.6675 26.4242C95.6488 26.8486 96.471 27.4188 97.134 28.1349C97.7971 28.851 98.2943 29.6533 98.6259 30.5418C98.9706 31.417 99.143 32.3121 99.143 33.2271V33.6647C99.143 34.4869 98.9773 35.3356 98.6458 36.2108C98.3275 37.0861 97.8435 37.9016 97.1937 38.6575C96.5439 39.4001 95.7283 40.0035 94.747 40.4676C93.7657 40.9185 92.6186 41.1439 91.3058 41.1439ZM91.3058 37.6828C91.9423 37.6828 92.5126 37.5767 93.0165 37.3645C93.5204 37.1524 93.9514 36.854 94.3094 36.4694C94.6675 36.0849 94.9393 35.6406 95.125 35.1367C95.3106 34.6195 95.4034 34.0626 95.4034 33.4658C95.4034 32.8293 95.304 32.2524 95.1051 31.7353C94.9194 31.2181 94.6476 30.7738 94.2895 30.4025C93.9315 30.0312 93.5005 29.7461 92.9966 29.5472C92.4927 29.3483 91.9291 29.2488 91.3058 29.2488C90.6693 29.2488 90.0991 29.3483 89.5951 29.5472C89.0912 29.7461 88.6602 30.0312 88.3022 30.4025C87.9442 30.7738 87.6723 31.2181 87.4866 31.7353C87.301 32.2524 87.2082 32.8293 87.2082 33.4658C87.2082 34.0626 87.301 34.6195 87.4866 35.1367C87.6723 35.6406 87.9442 36.0849 88.3022 36.4694C88.6602 36.854 89.0912 37.1524 89.5951 37.3645C90.0991 37.5767 90.6693 37.6828 91.3058 37.6828Z" fill="#00263E"/>
<g clip-path="url(#clip1_114_361)">
<path d="M32.7702 66.0314C32.2106 65.827 31.5757 65.149 31.4251 64.5679C31.156 63.5672 31.6188 62.5126 32.5442 62.0499C33.2436 61.7056 33.814 61.7056 34.5242 62.0607C35.8585 62.7278 36.106 64.428 35.0192 65.5041C34.3628 66.1605 33.631 66.3327 32.7702 66.0314Z" fill="#00263E"/>
<path d="M38.2043 64.0736C38.2043 63.6109 38.172 63.1266 38.1398 62.9975L38.0752 62.75H45.0267H51.9782V63.8261V64.9022H45.0913H38.2043V64.0736Z" fill="#00263E"/>
<path d="M45.8442 58.5526V57.4766H48.9111H51.9779V58.5526V59.6287H48.9111H45.8442V58.5526Z" fill="#00263E"/>
<path d="M41.8629 53.5712C40.3456 52.7965 38.9145 51.9033 38.0213 51.15L37.2788 50.5367L37.5909 50.0955C37.763 49.848 37.989 49.396 38.0859 49.0947L38.2688 48.5352L38.9037 49.0409C39.9905 49.891 41.5509 50.9779 42.4978 51.5482L43.4017 52.097H47.6953H51.9781V53.1193V54.1416H47.4908H42.9928L41.8629 53.5712Z" fill="#00263E"/>
<path d="M32.5551 49.6849C31.5328 49.2222 31.027 47.8233 31.522 46.7687C31.8987 45.9617 32.6196 45.5312 33.6096 45.5312C34.3414 45.5312 35.0839 45.9724 35.4067 46.5966C35.9663 47.7157 35.4067 49.2975 34.2983 49.7172C33.8786 49.8786 32.9425 49.8571 32.5551 49.6849Z" fill="#00263E"/>
<path d="M44.5638 48.4154C44.5745 47.985 44.5422 47.3716 44.4992 47.0703C44.4454 46.6722 44.4562 46.5 44.5422 46.5C44.6068 46.5 44.6606 46.5538 44.6606 46.6076C44.6606 46.6722 45.9519 46.7152 48.3193 46.7152H51.978V47.7913V48.8674H48.4269C45.3601 48.8674 44.8651 48.8889 44.8113 49.0288C44.6606 49.4162 44.5422 49.1364 44.5638 48.4154Z" fill="#00263E"/>
<path d="M54.9642 64.6277C54.8681 61.7743 54.8873 47.7433 54.993 46.8529C55.2331 44.804 56.4434 43.4095 58.2781 43.077C58.8544 42.9804 81.7926 42.9161 81.7926 43.0126C81.7926 43.0341 81.6389 43.5597 81.4468 44.1711C80.4766 47.3034 78.4499 51.3261 76.4519 54.1259C75.5105 55.4453 72.6961 58.5455 71.4954 59.5753C66.7406 63.6837 61.4287 66.0437 56.04 66.4192L55.0218 66.4943L54.9642 64.6277Z" fill="#FA6600"/>
<path d="M25.9906 60.554C24.0429 59.3595 24.8392 56.4756 27.1205 56.4648C27.7769 56.4648 28.5086 56.7877 28.7884 57.2289L28.9498 57.4764H35.9766H42.9927L42.9604 58.4986L42.9281 59.5209H36.0197H29.1112L28.896 59.8437C28.4979 60.4464 27.9275 60.7477 27.1312 60.7907C26.5286 60.8122 26.3564 60.7799 25.9906 60.554Z" fill="#FA6600"/>
<path d="M21.9018 55.2738C21.848 55.2522 21.665 55.2092 21.4929 55.1769C21.1055 55.0908 20.3414 54.3914 20.1585 53.9609C19.8357 53.1754 20.0401 52.1101 20.6428 51.4967C21.5251 50.6143 23.333 50.7435 23.914 51.7334L24.1293 52.0993H29.7034H35.2775L35.4712 52.4006C35.568 52.562 35.977 53.014 36.3536 53.4229L37.053 54.1439H30.6181H24.1831L23.8172 54.5743C23.376 55.0801 22.4075 55.4459 21.9018 55.2738Z" fill="#FA6600"/>
<path d="M42.2395 49.7744C41.4755 49.3762 41.1096 48.7951 41.1096 47.9558C41.1096 47.4285 41.3248 46.7936 41.6261 46.4708C42.3471 45.6745 43.8644 45.6852 44.5638 46.4815C44.8759 46.8366 44.9082 46.9658 44.919 48.0311C44.9297 48.709 44.8867 48.9135 44.7037 49.161C44.2087 49.8389 42.9605 50.151 42.2395 49.7744Z" fill="#FA6600"/>
</g>
<defs>
<clipPath id="clip0_114_361">
<rect width="70.028" height="19.7479" fill="white" transform="translate(14.9861)"/>
</clipPath>
<clipPath id="clip1_114_361">
<rect width="70.028" height="19.7479" fill="white" transform="translate(14.9861 46.7461)"/>
</clipPath>
</defs>
</svg>
